# xmcd
#
# Track frame offsets:
# 150
# 14229
# 26960
# 38234
# 55165
# 66803
# 79386
# 90025
# 110151
# 120614
# 133031
# 152191
# 162177
# 176310
# 192015
# 205283
#
# Disc length: 2850 seconds
#
#
# Revision: 0
# Processed by: cddbd v1.4PL0 Copyright (c) Steve Scherf et al.
# Submitted via: FreeRIP 2.30 
#
DISCID=da0b2010
DTITLE=The Invisibles - Summer
DYEAR=2001
DGENRE=Punk Rock
TTITLE0=Selfish
TTITLE1=Souvenir
TTITLE2=Nice Lies
TTITLE3=Frozen
TTITLE4=29 Months
TTITLE5=Better than nothing
TTITLE6=Fale comigo verão
TTITLE7=Question mark
TTITLE8=Stand Strong
TTITLE9=Waiting for tomorrow
TTITLE10=Rednight
TTITLE11=Grassring
TTITLE12=Marked
TTITLE13=Summerland
TTITLE14=Toys and puppets
TTITLE15=Faixa escondida
EXTD=
EXTT0=
EXTT1=
EXTT2=
EXTT3=
EXTT4=
EXTT5=
EXTT6=
EXTT7=
EXTT8=
EXTT9=
EXTT10=
EXTT11=
EXTT12=
EXTT13=
EXTT14=
EXTT15=
PLAYORDER=
